<svg width="32" height="32" viewBox="0 0 24 24" xmlns="http://www.w3.org/2000/svg">
  <!-- Thread lines connecting the X marks -->
  <path 
    d="M4 6 L8 10 L12 6 L16 10 L20 6" 
    stroke="white" 
    strokeWidth="0.6" 
    fill="none"
    strokeLinecap="round"
  />
  <path 
    d="M4 18 L8 14 L12 18 L16 14 L20 18" 
    stroke="white" 
    strokeWidth="0.6" 
    fill="none"
    strokeLinecap="round"
  />
  <!-- Connecting vertical threads -->
  <path 
    d="M8 10 L8 14 M16 10 L16 14" 
    stroke="white" 
    strokeWidth="0.5" 
    strokeLinecap="round"
  />
  <!-- X stitch marks -->
  <g strokeWidth="0.6" stroke="white" strokeLinecap="round">
    <path d="M6 4 L10 8 M10 4 L6 8" />
    <path d="M14 4 L18 8 M18 4 L14 8" />
    <path d="M6 16 L10 20 M10 16 L6 20" />
    <path d="M14 16 L18 20 M18 16 L14 20" />
  </g>
</svg>